<?xml version="1.0" encoding="UTF-8"?>
<svg version="1.1" xmlns="http://www.w3.org/2000/svg" width="1200" height="1198">
<path d="M0 0 C1.24265625 -0.00067474 2.4853125 -0.00134949 3.765625 -0.00204468 C94.60802973 0.07608143 185.26679578 24.08356414 332.2578125 119.6953125 C335.12918941 122.14685362 338.05278357 124.51559405 341 126.875 C345.33031021 130.39455547 349.2609199 134.15406593 353.15234375 138.1484375 C355.03703065 140.03663406 356.96617096 141.7761282 359 143.5 C367.04043408 150.41251747 374.60659728 158.0968229 381.4609375 166.18359375 C383.28704694 168.29279002 385.18170486 170.32868839 387.08911133 172.36425781 C392.55303993 178.21488771 397.56872585 184.30911094 402.453125 190.6484375 C404.28089455 193.01942527 406.14171912 195.3548228 408.046875 197.6640625 C468.7134899 271.37648255 504.51239026 366.2511412 515.93359375 560.71484375 C515.7111044 562.89378473 515.48307601 565.07216601 515.25 567.25 C515.12641113 568.43352051 515.00282227 569.61704102 514.87548828 570.83642578 C506.77161469 645.87338383 482.77532293 718.86015653 443.25 783.25 C442.78899902 784.01038574 442.32799805 784.77077148 441.85302734 785.55419922 C425.35587264 812.76251437 405.97935464 838.19385697 384.55664062 861.70776367 C383.09895309 863.31433653 381.6483476 864.92738939 380.20776367 866.54931641 C374.72682325 872.71449918 369.03321077 878.61862494 363.1875 884.4375 C362.34123047 885.28763672 361.49496094 886.13777344 360.62304688 887.01367188 C356.19965616 891.43024164 351.70976702 895.69944316 346.96801758 899.77270508 C344.80639006 901.63145285 342.71911492 903.56579931 340.625 905.5 C335.03460325 910.53815391 329.14967328 915.13542589 323.19677734 919.73144531 C321.21466147 921.2775653 319.25633775 922.85014443 317.30078125 924.4296875 C297.58681607 940.24067648 276.19274981 953.76714425 254.25 966.25 C253.44643066 966.71422363 252.64286133 967.17844727 251.81494141 967.65673828 C174.74705303 1012.12079895 82.12490088 1034.2434919 -6.75 1032.25 C-7.63429688 1032.23211426 -8.51859375 1032.21422852 -9.4296875 1032.19580078 C-94.31573518 1030.26785175 -180.06277206 1008.46546292 -258.75 962.25 C-260.51128245 961.2206073 -262.2730005 960.19195953 -264.03515625 959.1640625 C-274.59329544 952.9638962 -284.80574086 946.3921048 -294.75 939.25 C-295.5013623 938.71117187 -296.25272461 938.17234375 -297.02685547 937.6171875 C-308.24831181 929.53497105 -319.14354163 921.12303141 -329.75 912.25 C-330.64428711 911.50435791 -330.64428711 911.50435791 -331.55664062 910.74365234 C-344.53212717 899.88902123 -356.7662859 888.3099951 -368.75 876.375 C-369.53914795 875.5905249 -370.3282959 874.8060498 -371.14135742 873.99780273 C-375.88344061 869.24261012 -380.38078698 864.34785123 -384.75 859.25 C-385.79540885 858.05860773 -386.84225551 856.86847537 -387.890625 855.6796875 C-395.13551767 847.41625154 -402.10148993 839.0003685 -408.75 830.25 C-409.27674316 829.55986816 -409.80348633 828.86973633 -410.34619141 828.15869141 C-424.10321239 810.05819312 -436.59658994 791.06237797 -447.75 771.25 C-448.20938965 770.43805176 -448.6687793 769.62610352 -449.14208984 768.78955078 C-484.2337209 706.48639134 -505.32212859 638.29415209 -512.75 567.25 C-512.92571533 565.61611328 -512.92571533 565.61611328 -513.10498047 563.94921875 C-516.4659813 531.22815273 -516.40962235 496.93788892 -512.75 464.25 C-512.67458984 463.57549805 -512.59917969 462.90099609 -512.52148438 462.20605469 C-504.26055303 389.14637791 -482.23048578 318.77331538 -444.75 255.25 C-444.17459473 254.27224609 -443.59918945 253.29449219 -443.00634766 252.28710938 C-435.46295622 239.52938247 -427.54374838 227.1803907 -418.75 215.25 C-418.26321777 214.58452148 -417.77643555 213.91904297 -417.27490234 213.23339844 C-397.20306697 185.84046859 -374.8147884 158.2570793 -348.921875 136.14453125 C-346.77997212 134.27614474 -344.70323287 132.34732949 -342.62915039 130.40429688 C-336.77996791 124.94341428 -330.68843612 119.92938418 -324.3515625 115.046875 C-321.98057473 113.21910545 -319.6451772 111.35828088 -317.3359375 109.453125 C-252.12411868 55.78265404 -169.02141583 20.54663407 -41.75 1.25 C-40.71020996 1.1557373 -39.67041992 1.06147461 -38.59912109 0.96435547 C-25.75416736 -0.0551432 -12.87773321 0.00629129 0 0 Z " fill="#000000" transform="translate(598.75,82.75)"/>
<path d="M0 0 C1.96009003 -0.01469078 1.96009003 -0.01469078 3.95977783 -0.02967834 C8.18541573 -0.05716364 12.41100069 -0.06837385 16.63671875 -0.07421875 C17.35585827 -0.07536934 18.07499779 -0.07651993 18.81592941 -0.07770538 C41.86448463 -0.10334932 64.53114428 0.5233098 87.32421875 4.23828125 C87.98740112 4.34483032 88.6505835 4.45137939 89.3338623 4.56115723 C170.31884415 17.64850251 248.02575237 53.39625069 308.7421875 108.90234375 C310.14678728 110.17307094 311.55764343 111.43752796 312.99829102 112.66723633 C318.721199 117.56535286 324.05831764 122.81965908 329.36987305 128.15356445 C330.88414455 129.67319793 332.40369305 131.18740642 333.92382812 132.70117188 C339.26742093 138.04078372 344.4403984 143.47045312 349.32421875 149.23828125 C350.21278347 150.25977461 351.10206241 151.2806473 351.9921875 152.30078125 C376.21162498 180.53801688 395.71637487 212.03310812 412.32421875 245.23828125 C412.97366455 246.51735352 412.97366455 246.51735352 413.63623047 247.82226562 C425.12854222 270.51306508 433.40883609 294.80750517 440.32421875 319.23828125 C440.68290039 320.50115967 440.68290039 320.50115967 441.04882812 321.78955078 C447.77243763 345.91863328 453.32421875 372.13890597 453.32421875 397.23828125 C364.22421875 397.23828125 275.12421875 397.23828125 183.32421875 397.23828125 C180.32421875 388.23828125 180.32421875 388.23828125 179.10546875 384.23046875 C165.62169735 340.29105414 135.92308014 303.89662448 95.3359375 282.26171875 C85.18782014 277.05032271 74.70618507 273.17454362 63.76171875 269.98828125 C62.55962769 269.63697144 62.55962769 269.63697144 61.33325195 269.27856445 C47.60307449 265.46333431 34.59162694 263.73882083 20.38842773 263.84716797 C17.89185807 263.86324815 15.39691173 263.84721792 12.90039062 263.828125 C2.06943364 263.81387146 -8.09131696 264.97746725 -18.67578125 267.23828125 C-20.04657837 267.52034424 -20.04657837 267.52034424 -21.44506836 267.80810547 C-53.01623286 274.6518072 -80.93972052 291.62882158 -103.67578125 314.23828125 C-104.15354004 314.71201172 -104.63129883 315.18574219 -105.12353516 315.67382812 C-126.20465661 336.8785712 -140.01655606 364.72651411 -146.984375 393.59765625 C-147.67578125 396.23828125 -147.67578125 396.23828125 -148.67578125 397.23828125 C-150.09363831 397.33485745 -151.51629009 397.36199975 -152.93743229 397.36132908 C-154.3250686 397.36431565 -154.3250686 397.36431565 -155.74073797 397.36736256 C-157.28302066 397.3629933 -157.28302066 397.3629933 -158.85646057 397.35853577 C-159.93945637 397.35939019 -161.02245217 397.36024462 -162.13826603 397.36112493 C-165.79735325 397.36278294 -169.45639546 397.35725314 -173.11547852 397.35180664 C-175.72643025 397.35152481 -178.33738206 397.35168242 -180.94833374 397.35224915 C-186.58503759 397.35277457 -192.22172991 397.34962589 -197.85843086 397.34401131 C-206.00824434 397.33589874 -214.15805222 397.33328134 -222.30786931 397.33202332 C-235.52906122 397.32983241 -248.75024698 397.32317129 -261.97143555 397.3137207 C-274.8177894 397.30454758 -287.66414158 397.29746626 -300.51049805 397.29321289 C-301.30178915 397.29295017 -302.09308026 397.29268744 -302.90834988 397.29241676 C-306.87785812 397.29111176 -310.84736637 397.28984804 -314.81687462 397.28860486 C-347.76984798 397.27823105 -380.72281379 397.26061169 -413.67578125 397.23828125 C-413.36592756 393.8940522 -413.0526389 390.55015319 -412.73876953 387.20629883 C-412.65182327 386.26744087 -412.56487701 385.32858292 -412.47529602 384.36127472 C-408.0301631 337.17789352 -393.67821994 291.04741591 -373.67578125 248.23828125 C-372.96639404 246.71992676 -372.96639404 246.71992676 -372.24267578 245.17089844 C-357.34883418 213.67018552 -338.06995179 183.49130811 -315.19921875 157.1640625 C-312.72896426 154.29994391 -310.35380353 151.37662901 -307.98828125 148.42578125 C-304.7940983 144.49710703 -301.46523857 140.86738853 -297.79296875 137.3828125 C-295.90889343 135.4744041 -294.17821297 133.51495175 -292.43359375 131.48046875 C-288.74693656 127.23743657 -284.78929102 123.37640263 -280.67578125 119.55078125 C-279.93521484 118.85944092 -279.19464844 118.16810059 -278.43164062 117.45581055 C-266.05392444 105.9620282 -253.233517 95.31199069 -239.67578125 85.23828125 C-238.9605127 84.70203125 -238.24524414 84.16578125 -237.50830078 83.61328125 C-190.29135156 48.29343252 -133.86615487 21.93002544 -76.05273438 9.73974609 C-73.69876118 9.24312932 -71.35167765 8.72036849 -69.00390625 8.1953125 C-54.05645247 4.94640185 -38.86030046 3.01205728 -23.67578125 1.23828125 C-22.6014962 1.10675911 -22.6014962 1.10675911 -21.50550842 0.97257996 C-14.33702042 0.16267418 -7.20929188 0.04438493 0 0 Z " fill="#FE1B1B" transform="translate(582.67578125,166.76171875)"/>
<path d="M0 0 C89.43 0 178.86 0 271 0 C272.65 6.27 274.3 12.54 276 19 C277.17975124 22.32344556 278.32069402 25.43500947 279.75 28.625 C280.08797607 29.39875977 280.42595215 30.17251953 280.77416992 30.96972656 C299.89527212 73.98673082 333.06624342 105.78369712 377 123 C388.78714987 127.37608209 400.58540037 130.14647761 413 132 C413.92756104 132.17200928 414.85512207 132.34401855 415.81079102 132.52124023 C421.70967036 133.40677207 427.67062477 133.24481326 433.625 133.25 C434.66460876 133.25101212 434.66460876 133.25101212 435.72521973 133.25204468 C447.37216569 133.23406788 458.59849809 132.48582102 470 130 C470.77666016 129.83371094 471.55332031 129.66742187 472.35351562 129.49609375 C503.04873254 122.69731724 530.54549161 107.95827616 553 86 C554.00418285 85.05619939 555.00940873 84.11350742 556.015625 83.171875 C578.79580051 61.53326128 594.85943184 30.70284079 601 0 C688.78 0 776.56 0 867 0 C864.6733548 24.42977462 864.6733548 24.42977462 863.25 32.125 C863.08153564 33.05836182 862.91307129 33.99172363 862.73950195 34.95336914 C849.0018769 109.25892862 818.85542052 178.93798515 770.42675781 237.26904297 C769.17142258 238.79202839 767.93926912 240.33405915 766.7109375 241.87890625 C757.32642818 253.67105185 746.68344967 264.39233587 736.0625 275.0625 C735.37736328 275.75230957 734.69222656 276.44211914 733.98632812 277.15283203 C729.48715287 281.63782463 724.82075949 285.86456013 720 290 C719.03578125 290.845625 718.0715625 291.69125 717.078125 292.5625 C691.98059481 314.1935205 664.20574848 332.435156 635 348 C634.14293457 348.45987305 633.28586914 348.91974609 632.40283203 349.39355469 C552.90958208 391.68115785 458.67417227 405.81073962 301.62744141 377.40283203 C290.89243996 374.05176886 280.38237484 370.3194362 270 366 C269.04915527 365.60619141 268.09831055 365.21238281 267.11865234 364.80664062 C219.11849498 344.73851455 176.33542546 317.017367 138 282 C137.03191406 281.12472656 136.06382812 280.24945312 135.06640625 279.34765625 C126.55899748 271.63628621 118.23069147 263.77897929 110.76171875 255.0390625 C108.80394261 252.7730777 106.77771052 250.57856506 104.75 248.375 C99.65056147 242.72146288 94.99170907 236.7628393 90.34667969 230.73632812 C89.1016976 229.13112279 87.83684535 227.54138163 86.5703125 225.953125 C40.65905141 167.8490372 11.54165067 95.12705543 1.6875 22 C1.51581299 20.72930664 1.34412598 19.45861328 1.16723633 18.14941406 C0.37361133 11.96104342 0 6.29552096 0 0 Z " fill="#FEFEFE" transform="translate(164,634)"/>
<path d="M0 0 C32.92662852 6.54228436 64.60601232 17.8776452 95 32 C95.85867676 32.39767578 96.71735352 32.79535156 97.60205078 33.20507812 C133.45745349 49.99964361 167.21333963 72.96560996 196.41796875 99.6640625 C197.82256853 100.93478969 199.23342468 102.19924671 200.67407227 103.42895508 C206.39698025 108.32707161 211.73409889 113.58137783 217.0456543 118.9152832 C218.5599258 120.43491668 220.0794743 121.94912517 221.59960938 123.46289062 C226.94320218 128.80250247 232.11617965 134.23217187 237 140 C237.88856472 141.02149336 238.77784366 142.04236605 239.66796875 143.0625 C263.88740623 171.29973563 283.39215612 202.79482687 300 236 C300.43296387 236.85271484 300.86592773 237.70542969 301.31201172 238.58398438 C312.80432347 261.27478383 321.08461734 285.56922392 328 310 C328.35868164 311.26287842 328.35868164 311.26287842 328.72460938 312.55126953 C335.44821888 336.68035203 341 362.90062472 341 388 C251.9 388 162.8 388 71 388 C71 387.67 71 387.34 71 387 C122.81 387 174.62 387 228 387 C227.32658421 372.09273412 227.32658421 372.09273412 225.65234375 357.3828125 C225.45428635 356.04206917 225.45428635 356.04206917 225.25222778 354.67424011 C224.82580033 351.82254313 224.38359596 348.9736821 223.9375 346.125 C223.78449432 345.13398285 223.63148865 344.1429657 223.47384644 343.12191772 C219.1394267 315.19329971 213.49984523 287.71032299 204.88330078 260.765625 C204.10828505 258.33904176 203.35980484 255.9065516 202.62109375 253.46875 C191.5271646 217.67623121 174.67614476 182.80912811 155 151 C154.56075195 150.2884375 154.12150391 149.576875 153.66894531 148.84375 C145.75860998 136.11650655 137.11828459 123.88687264 128 112 C127.58524414 111.45762695 127.17048828 110.91525391 126.74316406 110.35644531 C121.43155677 103.43017335 115.95341708 96.67057997 110.25 90.0625 C109.73147461 89.46010498 109.21294922 88.85770996 108.67871094 88.23706055 C105.38766385 84.46175939 101.94585264 80.92555414 98.31152344 77.47827148 C97 76 97 76 97 74 C96.34 74 95.68 74 95 74 C93.625 72.56640625 93.625 72.56640625 92 70.5625 C88.52626204 66.4799626 84.75812666 62.95982695 80.73828125 59.421875 C78.3012057 57.26640161 75.91054873 55.0729039 73.52905273 52.85693359 C67.89223124 47.62422081 62.10628602 42.67950431 56 38 C55.1339917 37.33315186 55.1339917 37.33315186 54.25048828 36.65283203 C39.85596558 25.59745445 24.94139165 15.82651245 9.3359375 6.56640625 C8.58022461 6.11797363 7.82451172 5.66954102 7.04589844 5.20751953 C5.34054633 4.20099548 3.62815334 3.20641275 1.9140625 2.21484375 C1.28242187 1.81394531 0.65078125 1.41304687 0 1 C0 0.67 0 0.34 0 0 Z " fill="#DE1717" transform="translate(695,176)"/>
<path d="M0 0 C35.31 0 70.62 0 107 0 C104.6733548 24.42977462 104.6733548 24.42977462 103.25 32.125 C103.08153564 33.05836182 102.91307129 33.99172363 102.73950195 34.95336914 C89.0018769 109.25892862 58.85542052 178.93798515 10.42675781 237.26904297 C9.17142258 238.79202839 7.93926912 240.33405915 6.7109375 241.87890625 C-2.67357182 253.67105185 -13.31655033 264.39233587 -23.9375 275.0625 C-24.62263672 275.75230957 -25.30777344 276.44211914 -26.01367188 277.15283203 C-30.51284713 281.63782463 -35.17924051 285.86456013 -40 290 C-40.96421875 290.845625 -41.9284375 291.69125 -42.921875 292.5625 C-68.01940519 314.1935205 -95.79425152 332.435156 -125 348 C-125.85706543 348.45987305 -126.71413086 348.91974609 -127.59716797 349.39355469 C-157.46752267 365.28352908 -189.99632714 377.52375816 -223 385 C-223 384.34 -223 383.68 -223 383 C-221.48144531 381.89355469 -221.48144531 381.89355469 -219.328125 380.671875 C-218.52842285 380.209021 -217.7287207 379.74616699 -216.90478516 379.26928711 C-216.02870605 378.76792236 -215.15262695 378.26655762 -214.25 377.75 C-180.78016763 358.12633639 -148.12716976 331.95406269 -122.94140625 302.27734375 C-121.38768045 300.45476399 -119.81170047 298.66325461 -118.21484375 296.87890625 C-71.90298763 244.83217075 -42.10209406 181.78666708 -21 116 C-20.50258301 114.45699219 -20.50258301 114.45699219 -19.99511719 112.8828125 C-12.29117386 88.64249256 -8.12614195 63.3864454 -4.625 38.25 C-4.49762451 37.33966003 -4.37024902 36.42932007 -4.23901367 35.49139404 C-2.91194968 25.91612028 -1.74319909 16.39867884 -1.22412109 6.74121094 C-1 4 -1 4 0 0 Z " fill="#DEDEDE" transform="translate(924,634)"/>
<path d="M0 0 C9.07395134 7.98928633 16.0365471 16.5004521 22 27 C22.84498047 28.46179688 22.84498047 28.46179688 23.70703125 29.953125 C35.00712339 50.89405524 38.08082003 78.3283416 31.90429688 101.29516602 C23.77667771 128.17543157 6.8267431 150.25855566 -17.88549805 163.89379883 C-39.70167262 175.46138509 -67.0477822 179.28973371 -90.98828125 172.31640625 C-92.32887342 171.88795602 -93.6661238 171.44892233 -95 171 C-96.0526001 170.64591064 -96.0526001 170.64591064 -97.12646484 170.28466797 C-122.11554789 161.54947126 -142.68815202 143.94351394 -154.30029297 120.09643555 C-164.99056953 97.10709791 -168.63238079 69.67286729 -160.6171875 45.23046875 C-158.02768151 38.16537367 -154.72803562 31.52589699 -151 25 C-150.4328125 23.99324219 -149.865625 22.98648438 -149.28125 21.94921875 C-136.45407835 0.56051507 -114.63478056 -14.53776751 -90.7578125 -21.0703125 C-58.55214443 -29.03803495 -25.46866327 -21.47998943 0 0 Z " fill="#FEFEFE" transform="translate(665,523)"/>
</svg>
